<svg version="1.1" id="Layer_1" xmlns="http://www.w3.org/2000/svg" xmlns:xlink="http://www.w3.org/1999/xlink" x="0px" y="0px"
	 width="100%" viewBox="0 0 621 296" enable-background="new 0 0 621 296" xml:space="preserve">
<path fill="#FEFEFE" opacity="1.000000" stroke="none" 
	d="
M470.000000,297.000000 
	C313.333344,297.000000 157.166672,297.000000 1.000000,297.000000 
	C1.000000,198.333328 1.000000,99.666664 1.000000,1.000000 
	C208.000000,1.000000 415.000000,1.000000 622.000000,1.000000 
	C622.000000,99.666664 622.000000,198.333328 622.000000,297.000000 
	C571.500000,297.000000 521.000000,297.000000 470.000000,297.000000 
M456.737061,91.190224 
	C456.737061,91.190224 456.501892,91.549904 456.162567,91.582474 
	C456.162567,91.582474 455.883545,91.778297 455.391083,91.909782 
	C455.185699,92.168091 454.980316,92.426399 454.716064,92.690094 
	C454.716064,92.690094 454.657623,92.680840 453.991852,92.729935 
	C452.201569,93.993370 450.411285,95.256805 447.977142,96.673393 
	C447.317108,96.763847 446.657104,96.854301 445.640198,96.503029 
	C445.095581,97.001579 444.550995,97.500137 443.675964,98.463287 
	C443.154083,98.669243 442.632202,98.875191 441.385468,99.021149 
	C440.587708,99.670151 439.789948,100.319153 439.002441,101.002441 
	C439.002441,101.002441 438.969055,100.989395 438.271942,100.984581 
	C437.510345,101.641167 436.748779,102.297752 435.427887,103.306892 
	C433.953979,104.211639 432.480042,105.116386 430.641907,105.525330 
	C429.766235,106.354012 428.890564,107.182701 427.641968,108.494171 
	C426.876556,108.745667 426.111176,108.997162 424.628784,109.146927 
	C424.101776,109.789246 423.574738,110.431572 422.709381,111.639343 
	C420.839233,112.782288 418.969086,113.925240 416.365112,115.024643 
	C415.591553,115.705536 414.817993,116.386436 413.789154,117.525246 
	C413.508545,117.960632 413.227966,118.396019 412.365631,118.954926 
	C411.915009,119.307907 411.464417,119.660889 410.321320,120.027649 
	C409.080414,120.932442 407.839478,121.837234 406.267700,122.775421 
	C406.267700,122.775421 405.979797,122.941917 405.269104,122.977982 
	C403.549194,123.680824 401.829315,124.383659 399.317810,125.017059 
	C398.823517,125.023781 398.225189,124.848999 397.850159,125.063889 
	C389.276489,129.976944 380.679443,134.853348 372.221344,139.959625 
	C370.845001,140.790558 370.103821,142.673615 369.032623,144.002106 
	C369.032623,144.002106 369.054688,144.071320 368.333893,144.027573 
	C367.566223,144.699234 366.798553,145.370895 365.656036,146.606705 
	C363.840027,147.726044 362.020203,148.839188 360.208710,149.965851 
	C352.150238,154.977875 344.094116,159.993698 335.558289,165.148514 
	C335.558289,165.148514 335.128662,165.402222 334.488312,165.258621 
	C333.521393,166.046463 332.554443,166.834305 331.063171,167.777481 
	C330.747101,167.957565 330.431030,168.137634 329.495239,168.214706 
	C328.950775,168.759308 328.406342,169.303909 327.854706,169.906494 
	C327.854706,169.906494 327.883362,169.862274 327.364838,169.943756 
	C327.114136,170.180161 326.863403,170.416580 325.961304,170.855209 
	C324.361298,171.738892 322.761322,172.622589 320.521942,173.462738 
	C319.380310,174.322189 318.238678,175.181625 317.025696,176.026321 
	C317.025696,176.026321 317.018402,176.098831 316.528076,176.137131 
	C316.192474,176.274429 315.998505,176.522507 315.928680,176.925552 
	C315.928680,176.925552 315.884369,176.908432 315.221313,176.888458 
	C314.344025,177.461670 313.466736,178.034882 311.922180,178.761169 
	C311.298523,179.036041 310.674866,179.310928 309.659607,179.446960 
	C309.342804,179.536667 309.193329,179.746094 308.782837,180.337433 
	C308.503326,180.521790 308.223816,180.706161 307.269409,180.883057 
	C306.419830,181.496628 305.570251,182.110184 304.024841,182.874466 
	C299.030090,185.916397 294.035339,188.958344 288.340698,192.140472 
	C278.879517,197.073120 269.418365,202.005768 259.263550,207.121674 
	C251.470139,210.752487 243.676743,214.383316 235.900375,217.261353 
	C246.851456,190.143280 257.802551,163.025192 269.335907,134.465240 
	C277.385193,150.508301 284.775726,165.238434 292.495392,180.624512 
	C302.686401,175.107376 312.515350,169.786255 322.423096,164.422485 
	C311.398987,142.686829 300.906555,121.908279 290.236542,101.221313 
	C289.681641,100.145493 287.619324,99.295815 286.247803,99.279716 
	C275.256836,99.150734 264.262665,99.319710 253.270691,99.236290 
	C249.512054,99.207764 247.649673,100.979614 246.369736,104.356392 
	C243.792908,111.154556 240.916336,117.841202 238.080185,124.538597 
	C227.423203,149.704453 216.810318,174.889450 206.024811,200.000244 
	C199.842590,214.393723 193.359650,228.658035 186.470840,243.381485 
	C188.823288,244.240219 191.165009,245.806580 193.529938,245.842438 
	C208.471771,246.069031 223.474365,245.165848 238.346008,246.212006 
	C249.736954,247.013321 259.383057,243.251114 268.777039,238.285706 
	C279.916290,232.397812 290.530396,225.524109 301.522858,219.345810 
	C304.420929,217.716965 307.874634,217.076706 311.056824,216.755295 
	C313.820068,222.726410 316.969208,228.554565 319.247864,234.705215 
	C322.030396,242.216064 326.471466,245.700424 334.795441,244.360153 
	C339.493561,243.603699 344.412750,244.219513 349.232361,244.218521 
	C353.942200,244.217575 358.652039,244.218323 364.052246,244.218323 
	C361.927643,239.996002 360.284698,236.585007 358.515320,233.240921 
	C352.390381,221.664825 346.221436,210.112015 340.409821,198.028992 
	C347.783234,192.333527 355.206482,186.701050 362.512604,180.920502 
	C367.407349,177.047836 374.378571,175.716171 377.507721,168.727219 
	C378.338898,168.209579 379.170074,167.691925 380.430115,167.627457 
	C384.527985,165.748260 388.625854,163.869080 392.962708,162.655762 
	C397.314514,168.112976 401.105286,174.167709 406.141327,178.896210 
	C415.112335,187.319397 417.285370,197.196335 416.340332,209.025513 
	C415.419037,220.556808 416.140076,232.219315 416.140076,243.929504 
	C428.534760,243.929504 440.434174,243.929504 452.896149,243.929504 
	C452.896149,241.644485 452.899170,239.680267 452.895660,237.716034 
	C452.870911,223.885788 452.673859,210.052017 452.959381,196.228195 
	C453.018402,193.369797 454.212891,190.022949 455.996490,187.789734 
	C478.651733,159.423965 501.514771,131.224182 524.297729,102.960274 
	C525.042236,102.036728 525.498962,100.881294 526.265869,99.521866 
	C512.655090,99.521866 499.689667,99.350731 486.737488,99.687111 
	C484.529755,99.744438 481.698914,101.456535 480.306091,103.281822 
	C466.302246,121.633728 452.548218,140.176147 438.694153,158.642654 
	C437.147949,160.703613 435.505920,161.432373 433.576141,158.821609 
	C429.425690,153.206558 425.137695,147.693146 420.978088,141.384995 
	C421.869690,140.119827 422.522675,138.549652 423.689789,137.636688 
	C435.267944,128.579605 446.947388,119.652275 458.564056,110.644234 
	C465.473328,105.286484 472.287811,99.806366 479.204407,94.458199 
	C493.353577,83.517517 507.701782,72.827370 521.666016,61.656551 
	C533.093018,52.515457 544.093140,42.839897 555.240356,33.351799 
	C555.989075,32.714523 556.382202,31.659582 556.940735,30.798883 
	C556.528748,30.334070 556.116760,29.869255 555.704773,29.404442 
	C551.782776,31.556763 547.860779,33.709084 543.652039,36.390297 
	C543.087708,36.584030 542.523376,36.777760 541.251648,36.978973 
	C540.503235,37.661015 539.754822,38.343060 538.835876,39.485260 
	C538.629089,39.759136 538.358032,39.932266 537.595764,40.114090 
	C537.322449,40.245888 537.110229,40.443394 536.473572,40.828388 
	C536.315552,40.882118 536.157471,40.935844 535.391602,41.027702 
	C534.927856,41.367523 534.464172,41.707344 533.730103,42.224709 
	C533.730103,42.224709 533.410095,42.271706 532.801575,42.286709 
	C532.549988,42.584896 532.298401,42.883080 531.517700,43.580616 
	C528.043579,45.739952 524.569458,47.899292 520.334717,50.012260 
	C518.916382,51.064133 517.498108,52.116005 515.752136,53.615139 
	C515.305847,54.197159 514.859497,54.779179 513.878296,55.498985 
	C513.451965,55.858952 513.025696,56.218918 512.059204,56.653183 
	C511.705658,56.730938 511.352081,56.808693 510.575195,56.437649 
	C506.371643,59.256947 502.168091,62.076248 497.643860,65.089836 
	C497.643860,65.089836 497.279633,65.178665 496.504639,65.125961 
	C495.000000,66.399284 493.495331,67.672615 491.693024,69.156204 
	C491.693024,69.156204 491.338104,69.238876 490.561493,69.094276 
	C488.732697,70.439293 486.903900,71.784309 484.667358,73.611038 
	C483.232178,74.489456 481.796997,75.367874 479.611450,76.126579 
	C477.367157,77.381256 475.122833,78.635941 472.496002,80.125725 
	C472.246765,80.306854 472.065125,80.540550 471.530670,80.969269 
	C471.530670,80.969269 471.099426,81.074570 470.608307,81.191490 
	C470.396912,81.443962 470.185547,81.696434 469.834625,82.337250 
	C469.834625,82.337250 469.707397,82.729782 469.103973,82.850128 
	C468.508026,83.001801 467.912079,83.153473 466.639038,83.174034 
	C466.048615,83.738678 465.458191,84.303322 464.179321,84.958969 
	C463.470367,85.663361 462.761383,86.367752 461.762299,87.511398 
	C461.424255,87.914101 461.086212,88.316795 460.092682,88.912140 
	C459.352600,89.436005 458.612518,89.959862 457.539368,90.471573 
	C457.329285,90.578659 457.183777,90.743019 456.737061,91.190224 
M373.900665,134.656006 
	C374.577393,134.068085 375.254120,133.480148 376.307861,132.326981 
	C383.304749,128.239410 390.208649,123.978699 397.343658,120.148422 
	C400.248871,118.588829 400.504028,117.091362 398.704926,114.757751 
	C395.451569,110.537743 392.365112,106.158287 388.774109,102.244354 
	C387.319427,100.658867 384.742889,99.284088 382.646759,99.239861 
	C369.988617,98.972694 357.321686,99.104988 344.657867,99.152321 
	C343.621063,99.156189 342.585632,99.522896 340.867981,99.851334 
	C350.493011,111.559906 359.620819,122.762451 368.945007,133.799088 
	C369.615265,134.592438 371.719757,134.174088 373.900665,134.656006 
M175.411316,151.195862 
	C176.728363,125.076057 162.660599,109.363472 139.614380,103.476791 
	C129.867783,100.987221 119.577621,99.858902 109.496437,99.601067 
	C86.515366,99.013298 63.510769,99.335045 40.515717,99.329201 
	C39.103191,99.328842 37.690575,99.693260 36.395256,99.871803 
	C36.395256,148.155426 36.395256,195.927185 36.395256,243.857941 
	C48.379570,243.857941 60.062538,243.857941 72.246124,243.857941 
	C72.246124,228.001129 72.246124,212.575546 72.246124,196.620743 
	C80.876816,196.620743 89.013908,196.742111 97.144180,196.559692 
	C100.298309,196.488922 102.366165,197.611542 104.281525,200.052292 
	C115.077530,213.809738 125.924347,227.529816 136.986877,241.072281 
	C138.305969,242.687088 141.009628,243.921799 143.123917,244.005234 
	C151.944275,244.353271 160.784637,244.197083 169.617676,244.219376 
	C173.174286,244.228348 176.730927,244.220856 181.805969,244.220856 
	C167.365646,226.578629 153.956421,210.196121 140.220428,193.414413 
	C160.803375,186.452744 174.187729,174.322067 175.411316,151.195862 
M479.035675,230.607300 
	C475.050629,238.395035 477.884277,244.533539 486.490906,245.128754 
	C491.041046,245.443436 495.727844,243.781876 500.062927,243.060760 
	C502.992065,243.832367 505.943939,244.609940 508.895813,245.387527 
	C509.334229,245.022766 509.772675,244.658005 510.211090,244.293228 
	C503.288483,240.140671 504.352539,234.939178 507.495850,229.717285 
	C502.472534,226.320160 502.853851,233.270370 499.048004,233.259827 
	C497.182831,231.250198 495.008545,228.907532 492.683411,226.402298 
	C494.336456,224.994507 495.545624,224.114609 496.575775,223.059875 
	C499.925842,219.629807 500.456207,215.383224 498.017334,212.234512 
	C495.457458,208.929550 489.182709,207.940689 485.178528,210.211197 
	C481.493256,212.300873 479.180237,217.536789 481.569580,220.913361 
	C484.654449,225.272842 483.256897,227.667831 479.035675,230.607300 
M530.926086,211.204514 
	C522.001953,217.515121 519.653259,230.913666 526.082153,238.837555 
	C532.372803,246.591080 545.421936,247.886673 552.214539,241.465088 
	C551.139282,237.742813 549.065491,237.777557 545.817932,239.133957 
	C537.962769,242.414825 529.574768,237.496887 528.210510,229.156403 
	C526.467590,218.500992 535.475891,211.539108 546.586609,215.341187 
	C550.182922,216.571838 551.295105,215.423233 552.210449,212.251694 
	C545.431091,207.947739 538.633362,207.967346 530.926086,211.204514 
M569.454407,245.561890 
	C571.092346,245.286087 572.790222,245.198380 574.357178,244.699554 
	C579.281006,243.132095 582.749695,238.363403 583.047913,232.993927 
	C583.338196,227.767090 581.062500,223.836456 576.459534,221.626953 
	C570.601013,218.814728 564.976746,220.135773 560.167725,224.122437 
	C556.447571,227.206482 554.927246,231.465057 556.365967,236.261917 
	C558.165039,242.260117 562.636780,244.988037 569.454407,245.561890 
z"/>
<path fill="#142330" opacity="1.000000" stroke="none" 
	d="
M175.398834,151.636475 
	C174.187729,174.322067 160.803375,186.452744 140.220428,193.414413 
	C153.956421,210.196121 167.365646,226.578629 181.805969,244.220856 
	C176.730927,244.220856 173.174286,244.228348 169.617676,244.219376 
	C160.784637,244.197083 151.944275,244.353271 143.123917,244.005234 
	C141.009628,243.921799 138.305969,242.687088 136.986877,241.072281 
	C125.924347,227.529816 115.077530,213.809738 104.281525,200.052292 
	C102.366165,197.611542 100.298309,196.488922 97.144180,196.559692 
	C89.013908,196.742111 80.876816,196.620743 72.246124,196.620743 
	C72.246124,212.575546 72.246124,228.001129 72.246124,243.857941 
	C60.062538,243.857941 48.379570,243.857941 36.395256,243.857941 
	C36.395256,195.927185 36.395256,148.155426 36.395256,99.871803 
	C37.690575,99.693260 39.103191,99.328842 40.515717,99.329201 
	C63.510769,99.335045 86.515366,99.013298 109.496437,99.601067 
	C119.577621,99.858902 129.867783,100.987221 139.614380,103.476791 
	C162.660599,109.363472 176.728363,125.076057 175.398834,151.636475 
M92.500839,126.186783 
	C85.749260,126.186783 78.997681,126.186783 71.980263,126.186783 
	C71.980263,140.240494 72.065247,153.388077 71.918228,166.533066 
	C71.883148,169.669693 73.600883,170.231705 75.944168,170.226456 
	C89.429253,170.196320 102.938210,170.558868 116.390320,169.855545 
	C124.710915,169.420502 132.652771,166.347931 136.537170,158.116226 
	C142.090073,146.348633 138.021896,129.714905 119.897354,127.316315 
	C111.200737,126.165421 102.305641,126.514359 92.500839,126.186783 
z"/>
<path fill="#152330" opacity="1.000000" stroke="none" 
	d="
M187.012115,242.980515 
	C193.359650,228.658035 199.842590,214.393723 206.024811,200.000244 
	C216.810318,174.889450 227.423203,149.704453 238.080185,124.538597 
	C240.916336,117.841202 243.792908,111.154556 246.369736,104.356392 
	C247.649673,100.979614 249.512054,99.207764 253.270691,99.236290 
	C264.262665,99.319710 275.256836,99.150734 286.247803,99.279716 
	C287.619324,99.295815 289.681641,100.145493 290.236542,101.221313 
	C300.906555,121.908279 311.398987,142.686829 322.423096,164.422485 
	C312.515350,169.786255 302.686401,175.107376 292.495392,180.624512 
	C284.775726,165.238434 277.385193,150.508301 269.335907,134.465240 
	C257.802551,163.025192 246.851456,190.143280 235.698853,217.750488 
	C235.497345,218.239624 235.397430,218.674927 235.086365,218.777802 
	C224.882446,223.956726 214.922668,228.907913 205.124985,234.161392 
	C200.219757,236.791534 195.610138,239.972961 190.565063,242.946838 
	C189.179596,242.985931 188.095856,242.983215 187.012115,242.980515 
z"/>
<path fill="#142330" opacity="1.000000" stroke="none" 
	d="
M420.906036,142.138123 
	C425.137695,147.693146 429.425690,153.206558 433.576141,158.821609 
	C435.505920,161.432373 437.147949,160.703613 438.694153,158.642654 
	C452.548218,140.176147 466.302246,121.633728 480.306091,103.281822 
	C481.698914,101.456535 484.529755,99.744438 486.737488,99.687111 
	C499.689667,99.350731 512.655090,99.521866 526.265869,99.521866 
	C525.498962,100.881294 525.042236,102.036728 524.297729,102.960274 
	C501.514771,131.224182 478.651733,159.423965 455.996490,187.789734 
	C454.212891,190.022949 453.018402,193.369797 452.959381,196.228195 
	C452.673859,210.052017 452.870911,223.885788 452.895660,237.716034 
	C452.899170,239.680267 452.896149,241.644485 452.896149,243.929504 
	C440.434174,243.929504 428.534760,243.929504 416.140076,243.929504 
	C416.140076,232.219315 415.419037,220.556808 416.340332,209.025513 
	C417.285370,197.196335 415.112335,187.319397 406.141327,178.896210 
	C401.105286,174.167709 397.314514,168.112976 393.096558,162.085648 
	C397.205048,158.596939 401.124634,155.599289 405.168213,152.779541 
	C410.362061,149.157669 415.655518,145.678665 420.906036,142.138123 
z"/>
<path fill="#162331" opacity="1.000000" stroke="none" 
	d="
M340.069244,198.550339 
	C346.221436,210.112015 352.390381,221.664825 358.515320,233.240921 
	C360.284698,236.585007 361.927643,239.996002 364.052246,244.218323 
	C358.652039,244.218323 353.942200,244.217575 349.232361,244.218521 
	C344.412750,244.219513 339.493561,243.603699 334.795441,244.360153 
	C326.471466,245.700424 322.030396,242.216064 319.247864,234.705215 
	C316.969208,228.554565 313.820068,222.726410 311.379486,216.256470 
	C321.157837,210.021881 330.613556,204.286102 340.069244,198.550339 
z"/>
<path fill="#182633" opacity="1.000000" stroke="none" 
	d="
M373.157379,134.319138 
	C371.719757,134.174088 369.615265,134.592438 368.945007,133.799088 
	C359.620819,122.762451 350.493011,111.559906 340.867981,99.851334 
	C342.585632,99.522896 343.621063,99.156189 344.657867,99.152321 
	C357.321686,99.104988 369.988617,98.972694 382.646759,99.239861 
	C384.742889,99.284088 387.319427,100.658867 388.774109,102.244354 
	C392.365112,106.158287 395.451569,110.537743 398.704926,114.757751 
	C400.504028,117.091362 400.248871,118.588829 397.343658,120.148422 
	C390.208649,123.978699 383.304749,128.239410 375.796387,132.630249 
	C374.575745,133.395401 373.866547,133.857269 373.157379,134.319138 
z"/>
<path fill="#F9F1CD" opacity="1.000000" stroke="none" 
	d="
M420.942078,141.761566 
	C415.655518,145.678665 410.362061,149.157669 405.168213,152.779541 
	C401.124634,155.599289 397.205048,158.596939 392.977051,161.752716 
	C388.625854,163.869080 384.527985,165.748260 380.341248,167.073883 
	C383.894562,163.377121 387.536713,160.233917 391.493561,157.078674 
	C392.512634,156.677780 393.217010,156.288940 394.174530,155.852966 
	C394.624054,155.537643 394.820404,155.269440 395.327271,154.922852 
	C397.141296,153.650711 398.644775,152.456955 400.498108,151.203094 
	C403.578827,149.109283 406.309692,147.075577 409.020905,145.027222 
	C409.001221,145.012573 409.041656,145.050247 409.385681,145.020981 
	C412.164856,143.004837 414.600037,141.017944 417.015930,139.019363 
	C416.996643,139.007675 417.030670,139.041626 417.358276,139.010132 
	C418.794159,137.987366 419.902405,136.996078 421.005310,136.002335 
	C421.000000,135.999893 421.004547,136.010834 421.235077,135.939056 
	C421.753967,135.692276 421.949707,135.444183 422.369080,135.053299 
	C423.805267,134.020996 424.925110,133.058380 426.388550,132.041809 
	C429.507507,129.978592 432.344452,128.048248 435.045380,125.943405 
	C440.453918,121.728493 445.788025,117.418083 451.483673,113.059021 
	C455.873444,109.302475 459.932434,105.634018 464.347046,101.974960 
	C470.147064,97.706818 475.591492,93.429276 481.383270,89.087547 
	C488.825500,82.984398 495.920380,76.945435 503.375275,70.937088 
	C507.843018,67.664124 511.950745,64.360550 516.393921,61.015842 
	C517.553711,60.390011 518.378113,59.805313 519.225586,59.217804 
	C519.248779,59.214993 519.291504,59.235622 519.626526,59.167847 
	C529.567017,51.375099 539.172546,43.650131 548.778015,35.925163 
	C548.576782,35.619995 548.375549,35.314823 548.174316,35.009655 
	C546.762451,35.293571 545.350647,35.577492 543.938782,35.861404 
	C547.860779,33.709084 551.782776,31.556763 555.704773,29.404442 
	C556.116760,29.869255 556.528748,30.334070 556.940735,30.798883 
	C556.382202,31.659582 555.989075,32.714523 555.240356,33.351799 
	C544.093140,42.839897 533.093018,52.515457 521.666016,61.656551 
	C507.701782,72.827370 493.353577,83.517517 479.204407,94.458199 
	C472.287811,99.806366 465.473328,105.286484 458.564056,110.644234 
	C446.947388,119.652275 435.267944,128.579605 423.689789,137.636688 
	C422.522675,138.549652 421.869690,140.119827 420.942078,141.761566 
z"/>
<path fill="#263039" opacity="1.000000" stroke="none" 
	d="
M479.309937,230.333466 
	C483.256897,227.667831 484.654449,225.272842 481.569580,220.913361 
	C479.180237,217.536789 481.493256,212.300873 485.178528,210.211197 
	C489.182709,207.940689 495.457458,208.929550 498.017334,212.234512 
	C500.456207,215.383224 499.925842,219.629807 496.575775,223.059875 
	C495.545624,224.114609 494.336456,224.994507 492.683411,226.402298 
	C495.008545,228.907532 497.182831,231.250198 499.048004,233.259827 
	C502.853851,233.270370 502.472534,226.320160 507.495850,229.717285 
	C504.352539,234.939178 503.288483,240.140671 510.211090,244.293228 
	C509.772675,244.658005 509.334229,245.022766 508.895813,245.387527 
	C505.943939,244.609940 502.992065,243.832367 500.062927,243.060760 
	C495.727844,243.781876 491.041046,245.443436 486.490906,245.128754 
	C477.884277,244.533539 475.050629,238.395035 479.309937,230.333466 
M483.739960,238.906906 
	C487.940338,242.592087 492.024689,241.625702 497.292908,238.411240 
	C493.543640,234.844009 490.340240,231.796143 487.195007,228.803604 
	C482.218048,232.878769 481.916779,233.682037 483.739960,238.906906 
M493.951569,215.424774 
	C491.727783,214.976593 489.506012,214.290924 487.278534,214.271637 
	C486.807892,214.267563 485.564301,217.082733 485.994110,217.933029 
	C486.829407,219.585449 488.690735,221.991364 489.962250,221.895706 
	C492.933380,221.672150 494.849609,219.469345 493.951569,215.424774 
z"/>
<path fill="#F4ECC3" opacity="1.000000" stroke="none" 
	d="
M340.239532,198.289673 
	C330.613556,204.286102 321.157837,210.021881 311.387665,215.870056 
	C307.874634,217.076706 304.420929,217.716965 301.522858,219.345810 
	C290.530396,225.524109 279.916290,232.397812 268.777039,238.285706 
	C259.383057,243.251114 249.736954,247.013321 238.346008,246.212006 
	C223.474365,245.165848 208.471771,246.069031 193.529938,245.842438 
	C191.165009,245.806580 188.823288,244.240219 186.741486,243.181000 
	C188.095856,242.983215 189.179596,242.985931 190.956314,243.138504 
	C192.581192,243.548477 193.513672,244.036911 194.444885,244.034485 
	C208.675415,243.997452 222.905777,243.896332 237.580017,243.902893 
	C250.095642,245.803482 260.062164,240.875458 269.807739,234.168121 
	C273.793427,232.125000 277.443573,230.080505 281.410095,228.024445 
	C282.478241,227.627838 283.230011,227.242783 284.307556,226.766144 
	C292.122375,221.840073 299.611389,217.005569 307.473907,212.153442 
	C320.940857,204.129700 334.034271,196.123581 347.405457,188.070770 
	C348.068573,187.660187 348.453857,187.296280 349.169922,186.839188 
	C351.314697,185.270477 353.128632,183.794983 355.301941,182.258698 
	C358.105255,180.470078 360.549225,178.742233 363.346527,176.977615 
	C368.148773,174.330078 372.597656,171.719330 377.046539,169.108582 
	C374.378571,175.716171 367.407349,177.047836 362.512604,180.920502 
	C355.206482,186.701050 347.783234,192.333527 340.239532,198.289673 
z"/>
<path fill="#C5982A" opacity="1.000000" stroke="none" 
	d="
M235.397430,218.674927 
	C235.397430,218.674927 235.497345,218.239624 235.690338,218.126877 
	C243.676743,214.383316 251.470139,210.752487 259.895691,207.296356 
	C260.101318,212.791412 259.680450,218.112274 259.233551,223.430939 
	C259.207855,223.737030 258.936859,224.014511 258.835663,224.323532 
	C257.889130,227.214020 256.954773,230.108505 256.008942,233.002869 
	C256.001007,233.003906 256.000336,233.016556 255.679840,233.051743 
	C254.905579,233.722229 254.451843,234.357513 253.685669,235.133820 
	C249.914429,237.820419 246.455643,240.365997 242.995880,242.500031 
	C242.595734,239.681290 242.424774,237.205017 241.723831,234.889145 
	C241.181259,233.096527 238.798782,231.003479 239.264969,229.908890 
	C241.472565,224.725616 237.572464,222.077774 235.397430,218.674927 
z"/>
<path fill="#CFA22D" opacity="1.000000" stroke="none" 
	d="
M256.016876,233.001831 
	C256.954773,230.108505 257.889130,227.214020 258.835663,224.323532 
	C258.936859,224.014511 259.207855,223.737030 259.233551,223.430939 
	C259.680450,218.112274 260.101318,212.791412 260.242523,207.204727 
	C269.418365,202.005768 278.879517,197.073120 288.655457,192.369583 
	C288.648346,193.072296 288.326416,193.545883 287.724060,194.216187 
	C286.507416,195.262924 285.706543,196.395950 284.613770,196.918533 
	C275.333832,201.356415 273.772247,209.799149 280.803589,217.245056 
	C279.071991,218.661774 277.522003,219.811447 275.657654,221.105011 
	C271.236481,223.839951 267.129639,226.431000 262.713806,229.162415 
	C260.275482,230.535782 258.146179,231.768814 256.016876,233.001831 
z"/>
<path fill="#232D35" opacity="1.000000" stroke="none" 
	d="
M531.276245,211.051346 
	C538.633362,207.967346 545.431091,207.947739 552.210449,212.251694 
	C551.295105,215.423233 550.182922,216.571838 546.586609,215.341187 
	C535.475891,211.539108 526.467590,218.500992 528.210510,229.156403 
	C529.574768,237.496887 537.962769,242.414825 545.817932,239.133957 
	C549.065491,237.777557 551.139282,237.742813 552.214539,241.465088 
	C545.421936,247.886673 532.372803,246.591080 526.082153,238.837555 
	C519.653259,230.913666 522.001953,217.515121 531.276245,211.051346 
z"/>
<path fill="#F0B83A" opacity="1.000000" stroke="none" 
	d="
M321.161316,173.506287 
	C322.761322,172.622589 324.361298,171.738892 326.577789,170.784058 
	C327.423981,170.429367 327.653687,170.145828 327.883362,169.862274 
	C327.883362,169.862274 327.854706,169.906494 328.174255,169.918625 
	C329.034210,169.393082 329.574585,168.855392 330.114960,168.317719 
	C330.431030,168.137634 330.747101,167.957565 331.671143,167.804092 
	C333.228943,167.021210 334.178802,166.211716 335.128662,165.402222 
	C335.128662,165.402222 335.558289,165.148514 336.128906,165.110809 
	C337.143829,165.075195 337.588104,165.077286 337.982544,165.424133 
	C335.121521,168.298370 332.245819,170.761047 329.526794,173.386032 
	C328.203156,174.663910 326.200470,176.279190 326.249817,177.680252 
	C326.314423,179.513687 328.105255,181.286285 329.124084,183.444855 
	C323.733429,187.874252 318.372162,191.943832 312.801819,195.761383 
	C310.208618,196.140366 307.824463,196.771362 304.796051,197.572906 
	C305.409729,195.884399 305.523132,194.398987 306.322083,193.593613 
	C308.736816,191.159454 309.571289,188.849838 307.212036,185.869919 
	C306.709778,185.235535 307.046509,183.936920 307.109955,182.683960 
	C307.463562,181.912582 307.703949,181.401550 307.944305,180.890518 
	C308.223816,180.706161 308.503326,180.521790 309.161316,180.172607 
	C309.753693,179.919724 309.924164,179.779053 310.051208,179.585800 
	C310.674866,179.310928 311.298523,179.036041 312.604004,178.786301 
	C314.151978,178.177094 315.018188,177.542755 315.884369,176.908432 
	C315.884369,176.908432 315.928680,176.925552 316.179321,176.878403 
	C316.754761,176.690506 316.950928,176.446365 317.018402,176.098831 
	C317.018402,176.098831 317.025696,176.026321 317.385437,176.018463 
	C318.883911,175.175827 320.022614,174.341064 321.161316,173.506287 
z"/>
<path fill="#2A333B" opacity="1.000000" stroke="none" 
	d="
M569.051270,245.556870 
	C562.636780,244.988037 558.165039,242.260117 556.365967,236.261917 
	C554.927246,231.465057 556.447571,227.206482 560.167725,224.122437 
	C564.976746,220.135773 570.601013,218.814728 576.459534,221.626953 
	C581.062500,223.836456 583.338196,227.767090 583.047913,232.993927 
	C582.749695,238.363403 579.281006,243.132095 574.357178,244.699554 
	C572.790222,245.198380 571.092346,245.286087 569.051270,245.556870 
M564.804443,238.951462 
	C568.838745,241.296875 573.175354,241.476379 576.141663,237.955139 
	C577.633179,236.184555 577.972717,232.240891 577.102356,229.932526 
	C575.265381,225.060440 569.019958,223.430634 564.983215,226.003799 
	C560.712158,228.726288 560.386108,233.571838 564.804443,238.951462 
z"/>
<path fill="#E4B133" opacity="1.000000" stroke="none" 
	d="
M306.996704,182.944321 
	C307.046509,183.936920 306.709778,185.235535 307.212036,185.869919 
	C309.571289,188.849838 308.736816,191.159454 306.322083,193.593613 
	C305.523132,194.398987 305.409729,195.884399 304.796051,197.572906 
	C307.824463,196.771362 310.208618,196.140366 312.599243,196.026520 
	C309.070343,199.031586 305.534943,201.519470 301.679382,204.132751 
	C298.235382,206.161575 295.111572,208.064987 291.949493,209.600586 
	C291.357880,207.064545 289.630371,204.101547 290.463013,202.871368 
	C293.417877,198.505737 291.234833,196.282166 288.004517,194.019485 
	C288.326416,193.545883 288.648346,193.072296 289.005432,192.299500 
	C294.035339,188.958344 299.030090,185.916397 304.746368,182.888153 
	C305.977509,182.916016 306.487091,182.930161 306.996704,182.944321 
z"/>
<path fill="#FAD843" opacity="1.000000" stroke="none" 
	d="
M411.013824,120.013870 
	C411.464417,119.660889 411.915009,119.307907 412.812500,119.169846 
	C413.840149,119.592705 414.420990,119.800652 415.005432,120.352005 
	C415.674316,121.798920 416.339600,122.902420 416.850830,124.314011 
	C413.504669,126.999825 410.312561,129.377548 407.120483,131.755280 
	C407.128571,132.259064 407.136658,132.762833 407.144745,133.266617 
	C408.884613,133.631912 410.649231,133.908920 412.357117,134.388199 
	C413.951904,134.835754 415.486450,135.498108 417.037323,136.436829 
	C417.028320,137.552383 417.029510,138.296997 417.030670,139.041626 
	C417.030670,139.041626 416.996643,139.007675 416.615845,139.000092 
	C414.186493,139.347473 412.137878,139.702438 409.705627,140.045929 
	C406.486938,141.211044 403.574677,142.232971 400.835144,143.600784 
	C396.824677,145.603119 392.938049,147.853348 388.747559,149.997528 
	C388.329163,149.996902 388.161804,149.996658 387.762787,149.726715 
	C386.409210,148.733627 385.287323,148.010239 384.165405,147.286835 
	C385.047485,146.391983 385.820618,145.343369 386.829895,144.627975 
	C392.213257,140.812256 397.746338,137.201691 403.036194,133.263046 
	C405.388702,131.511429 406.916962,129.060333 405.099518,125.646507 
	C405.480682,124.549286 405.730225,123.745605 405.979797,122.941917 
	C405.979797,122.941917 406.267700,122.775421 406.811768,122.822235 
	C408.575165,121.917328 409.794495,120.965599 411.013824,120.013870 
z"/>
<path fill="#E5B538" opacity="1.000000" stroke="none" 
	d="
M503.015259,70.906464 
	C495.920380,76.945435 488.825500,82.984398 481.402771,88.728348 
	C482.647614,86.701714 484.220367,84.970100 485.960571,83.054123 
	C482.444672,82.602982 478.431030,83.825623 478.086182,78.538864 
	C478.970428,77.617798 479.666138,76.932045 480.361847,76.246292 
	C481.796997,75.367874 483.232178,74.489456 485.220154,73.332718 
	C487.627991,71.782562 489.483032,70.510719 491.338104,69.238876 
	C491.338104,69.238876 491.693024,69.156204 492.184235,69.043884 
	C494.210175,67.680603 495.744904,66.429642 497.279633,65.178673 
	C497.279633,65.178665 497.643860,65.089836 498.179260,65.030663 
	C500.433899,64.224327 502.153076,63.477169 503.934021,63.095985 
	C503.924255,64.602928 503.918274,65.752808 503.764496,66.882576 
	C503.580750,68.232857 503.270630,69.565933 503.015259,70.906464 
z"/>
<path fill="#EDD473" opacity="1.000000" stroke="none" 
	d="
M338.032410,165.079376 
	C337.588104,165.077286 337.143829,165.075195 336.368347,165.040649 
	C344.094116,159.993698 352.150238,154.977875 360.208710,149.965851 
	C362.020203,148.839188 363.840027,147.726044 366.161652,146.298706 
	C367.463074,145.350906 368.258881,144.711105 369.054688,144.071320 
	C369.054688,144.071320 369.032623,144.002106 369.400330,143.994751 
	C371.187225,143.149582 372.605927,142.310959 374.025696,141.474075 
	C382.301910,136.595688 390.578400,131.717712 398.924011,126.914162 
	C398.993225,126.988731 399.133392,127.136276 399.082214,127.434479 
	C398.988922,128.135971 398.946808,128.539261 398.594910,129.096100 
	C391.335571,133.283829 384.261261,137.122299 377.491516,141.438492 
	C374.318970,143.461227 371.734039,146.405548 368.502502,148.933624 
	C361.060364,152.933853 353.998596,156.932648 346.583679,160.976959 
	C343.497803,162.374786 340.765106,163.727081 338.032410,165.079376 
z"/>
<path fill="#C6A854" opacity="1.000000" stroke="none" 
	d="
M543.795410,36.125854 
	C545.350647,35.577492 546.762451,35.293571 548.174316,35.009655 
	C548.375549,35.314823 548.576782,35.619995 548.778015,35.925163 
	C539.172546,43.650131 529.567017,51.375099 519.559814,58.809486 
	C519.001892,56.226711 524.110352,54.477158 519.982788,51.528419 
	C520.439148,50.882496 520.767212,50.470566 521.095337,50.058632 
	C524.569458,47.899292 528.043579,45.739952 532.059937,43.316864 
	C532.871521,42.792645 533.140808,42.532173 533.410095,42.271706 
	C533.410095,42.271706 533.730103,42.224709 534.177124,42.134682 
	C535.082520,41.692963 535.541016,41.341274 535.999451,40.989578 
	C536.157471,40.935844 536.315552,40.882118 536.960938,40.795898 
	C537.774536,40.612610 537.966003,40.359692 538.022583,40.004650 
	C538.358032,39.932266 538.629089,39.759136 539.241272,39.211861 
	C540.417480,38.282806 541.188293,37.627155 541.959045,36.971497 
	C542.523376,36.777760 543.087708,36.584030 543.795410,36.125854 
z"/>
<path fill="#EBBA46" opacity="1.000000" stroke="none" 
	d="
M377.277130,168.917908 
	C372.597656,171.719330 368.148773,174.330078 363.379364,176.629181 
	C367.962067,168.052399 375.476166,162.740646 383.491516,157.880112 
	C386.122467,156.284729 388.396667,155.300705 391.178864,157.090714 
	C387.536713,160.233917 383.894562,163.377121 380.126831,166.847290 
	C379.170074,167.691925 378.338898,168.209579 377.277130,168.917908 
z"/>
<path fill="#F7F5DD" opacity="1.000000" stroke="none" 
	d="
M398.854797,126.839600 
	C390.578400,131.717712 382.301910,136.595688 374.025696,141.474075 
	C372.605927,142.310959 371.187225,143.149582 369.418518,144.028885 
	C370.103821,142.673615 370.845001,140.790558 372.221344,139.959625 
	C380.679443,134.853348 389.276489,129.976944 397.850159,125.063889 
	C398.225189,124.848999 398.823517,125.023781 399.585297,125.289619 
	C399.520142,125.987991 399.187469,126.413803 398.854797,126.839600 
z"/>
<path fill="#EDD473" opacity="1.000000" stroke="none" 
	d="
M425.345764,109.248657 
	C426.111176,108.997162 426.876556,108.745667 428.146118,108.229919 
	C429.435547,107.317482 430.220856,106.669304 431.006134,106.021133 
	C432.480042,105.116386 433.953979,104.211639 436.028717,103.124069 
	C437.409393,102.290627 438.189240,101.640015 438.969055,100.989403 
	C438.969055,100.989395 439.002441,101.002441 439.319550,100.999786 
	C440.064758,100.964188 440.492889,100.931236 440.988617,100.975372 
	C441.056244,101.052452 441.193817,101.204506 441.084045,101.517090 
	C438.967682,103.540329 436.961121,105.250984 434.604004,107.000168 
	C428.509003,110.365822 422.764526,113.692947 416.919983,116.917374 
	C416.819916,116.814674 416.620178,116.608871 416.733093,116.363434 
	C416.930328,115.768059 417.014648,115.418129 417.098938,115.068192 
	C418.969086,113.925240 420.839233,112.782288 423.190979,111.311745 
	C424.230316,110.405647 424.788055,109.827148 425.345764,109.248657 
z"/>
<path fill="#F9F1CD" opacity="1.000000" stroke="none" 
	d="
M503.872284,62.730011 
	C502.153076,63.477169 500.433899,64.224327 498.339600,64.933517 
	C502.168091,62.076248 506.371643,59.256947 510.737488,56.989716 
	C510.846893,57.979568 510.794006,58.417355 510.405518,58.889091 
	C508.003998,60.192032 505.938141,61.461021 503.872284,62.730011 
z"/>
<path fill="#F6CC3D" opacity="1.000000" stroke="none" 
	d="
M455.883545,91.778297 
	C455.883545,91.778297 456.162567,91.582474 456.623474,91.639084 
	C457.385834,91.465759 457.687347,91.235809 457.993774,91.003326 
	C457.998718,91.000778 458.005493,90.992264 458.374084,91.003326 
	C459.479370,90.980103 460.216064,90.945816 460.963104,91.317009 
	C460.424316,96.680931 456.576324,94.489792 454.074097,94.680084 
	C454.347076,93.826920 454.502350,93.253876 454.657623,92.680840 
	C454.657623,92.680840 454.716064,92.690094 455.022919,92.683090 
	C455.514374,92.376831 455.698944,92.077560 455.883545,91.778297 
z"/>
<path fill="#EDD473" opacity="1.000000" stroke="none" 
	d="
M398.924011,126.914169 
	C399.187469,126.413803 399.520142,125.987991 399.981079,125.324341 
	C401.829315,124.383659 403.549194,123.680824 405.624451,122.959946 
	C405.730225,123.745605 405.480682,124.549286 404.766846,125.665176 
	C403.529114,126.306633 402.755676,126.635902 401.624420,126.976089 
	C400.555511,127.036766 399.844452,127.086525 399.133392,127.136276 
	C399.133392,127.136276 398.993225,126.988731 398.924011,126.914169 
z"/>
<path fill="#F9F1CD" opacity="1.000000" stroke="none" 
	d="
M479.986633,76.186432 
	C479.666138,76.932045 478.970428,77.617798 477.746521,78.612823 
	C475.927521,79.400208 474.636780,79.878319 473.229980,80.239151 
	C473.113922,80.121872 472.878540,79.890625 472.878540,79.890625 
	C475.122833,78.635941 477.367157,77.381256 479.986633,76.186432 
z"/>
<path fill="#F9F1CD" opacity="1.000000" stroke="none" 
	d="
M490.949799,69.166580 
	C489.483032,70.510719 487.627991,71.782562 485.424011,73.091866 
	C486.903900,71.784309 488.732697,70.439293 490.949799,69.166580 
z"/>
<path fill="#F9F1CD" opacity="1.000000" stroke="none" 
	d="
M496.892151,65.152321 
	C495.744904,66.429642 494.210175,67.680603 492.333069,68.938751 
	C493.495331,67.672615 495.000000,66.399284 496.892151,65.152321 
z"/>
<path fill="#EDD473" opacity="1.000000" stroke="none" 
	d="
M454.324738,92.705383 
	C454.502350,93.253876 454.347076,93.826920 454.087097,94.689026 
	C453.982361,94.978104 453.967163,94.969467 453.658813,95.103302 
	C451.903168,95.828026 450.455872,96.418922 448.910095,96.888687 
	C448.811584,96.767563 448.621002,96.520241 448.621002,96.520241 
	C450.411285,95.256805 452.201569,93.993370 454.324738,92.705383 
z"/>
<path fill="#EDD473" opacity="1.000000" stroke="none" 
	d="
M442.110321,99.081146 
	C442.632202,98.875191 443.154083,98.669243 444.148560,98.233238 
	C445.027832,97.950928 445.434479,97.898666 445.923340,97.926971 
	C446.005554,98.007545 446.168488,98.170143 446.095093,98.532715 
	C444.412445,99.665024 442.803131,100.434769 441.193817,101.204514 
	C441.193817,101.204506 441.056244,101.052452 441.125366,100.740616 
	C441.499756,99.979568 441.805054,99.530357 442.110321,99.081146 
z"/>
<path fill="#EDD473" opacity="1.000000" stroke="none" 
	d="
M415.001801,120.008606 
	C414.420990,119.800652 413.840149,119.592705 413.103363,119.108078 
	C413.227966,118.396019 413.508545,117.960632 414.246460,117.283981 
	C415.342590,116.898102 415.981384,116.753487 416.620178,116.608871 
	C416.620178,116.608871 416.819916,116.814674 416.878387,117.233307 
	C416.291840,118.437492 415.646820,119.223053 415.001801,120.008606 
z"/>
<path fill="#F9F1CD" opacity="1.000000" stroke="none" 
	d="
M520.715027,50.035446 
	C520.767212,50.470566 520.439148,50.882496 519.712158,51.602764 
	C518.870239,52.235603 518.427307,52.560108 517.664551,52.918262 
	C516.923096,53.023903 516.501465,53.095890 516.079773,53.167877 
	C517.498108,52.116005 518.916382,51.064133 520.715027,50.035446 
z"/>
<path fill="#EDD473" opacity="1.000000" stroke="none" 
	d="
M410.667572,120.020760 
	C409.794495,120.965599 408.575165,121.917328 406.977203,122.805542 
	C407.839478,121.837234 409.080414,120.932442 410.667572,120.020760 
z"/>
<path fill="#F7F5DD" opacity="1.000000" stroke="none" 
	d="
M430.824036,105.773224 
	C430.220856,106.669304 429.435547,107.317482 428.332581,107.988525 
	C428.890564,107.182701 429.766235,106.354012 430.824036,105.773224 
z"/>
<path fill="#C6A854" opacity="1.000000" stroke="none" 
	d="
M515.915955,53.391510 
	C516.501465,53.095890 516.923096,53.023903 517.648926,53.271107 
	C516.972595,54.398872 515.992126,55.207443 514.868042,55.846741 
	C514.724548,55.677464 514.413147,55.361187 514.413147,55.361195 
	C514.859497,54.779179 515.305847,54.197159 515.915955,53.391510 
z"/>
<path fill="#EDD473" opacity="1.000000" stroke="none" 
	d="
M334.808472,165.330414 
	C334.178802,166.211716 333.228943,167.021210 331.933289,167.726425 
	C332.554443,166.834305 333.521393,166.046463 334.808472,165.330414 
z"/>
<path fill="#EDD473" opacity="1.000000" stroke="none" 
	d="
M320.841614,173.484512 
	C320.022614,174.341064 318.883911,175.175827 317.421143,176.025833 
	C318.238678,175.181625 319.380310,174.322189 320.841614,173.484512 
z"/>
<path fill="#F7F5DD" opacity="1.000000" stroke="none" 
	d="
M416.733093,116.363434 
	C415.981384,116.753487 415.342590,116.898102 414.374115,117.055023 
	C414.817993,116.386436 415.591553,115.705536 416.732025,115.046417 
	C417.014648,115.418129 416.930328,115.768059 416.733093,116.363434 
z"/>
<path fill="#EDD473" opacity="1.000000" stroke="none" 
	d="
M460.748169,88.719498 
	C461.086212,88.316795 461.424255,87.914101 462.243408,87.277893 
	C463.394012,86.967377 464.063477,86.890366 464.679108,87.148224 
	C463.471466,88.044182 462.317688,88.605255 461.058899,89.055595 
	C460.953918,88.944862 460.748169,88.719498 460.748169,88.719498 
z"/>
<path fill="#EDD473" opacity="1.000000" stroke="none" 
	d="
M467.316132,83.305138 
	C467.912079,83.153473 468.508026,83.001801 469.520813,82.899055 
	C469.937653,82.947983 470.162628,83.171654 470.056030,83.465607 
	C469.297180,84.211014 468.644928,84.662483 467.716919,85.068291 
	C467.258728,84.984802 467.076294,84.946976 466.934143,84.633942 
	C467.088318,84.007538 467.202240,83.656342 467.316132,83.305138 
z"/>
<path fill="#F9F1CD" opacity="1.000000" stroke="none" 
	d="
M464.732941,86.813354 
	C464.063477,86.890366 463.394012,86.967377 462.388489,87.058273 
	C462.761383,86.367752 463.470367,85.663361 464.588928,84.979767 
	C464.998535,85.000572 465.126221,85.132011 465.061951,85.405609 
	C464.937531,86.048653 464.877380,86.418083 464.797913,86.798996 
	C464.778564,86.810463 464.732941,86.813362 464.732941,86.813354 
z"/>
<path fill="#EDD473" opacity="1.000000" stroke="none" 
	d="
M315.552856,176.898438 
	C315.018188,177.542755 314.151978,178.177094 312.937622,178.709763 
	C313.466736,178.034882 314.344025,177.461670 315.552856,176.898438 
z"/>
<path fill="#EDD473" opacity="1.000000" stroke="none" 
	d="
M469.822510,82.838882 
	C469.707397,82.729782 469.834625,82.337250 470.148499,82.082405 
	C470.674744,81.576569 470.887085,81.325569 471.099426,81.074570 
	C471.099426,81.074570 471.530670,80.969269 472.011230,80.966202 
	C472.674438,80.996269 472.857025,81.029396 472.977448,81.391556 
	C471.997742,82.204277 471.080200,82.687965 470.162628,83.171654 
	C470.162628,83.171654 469.937653,82.947983 469.822510,82.838882 
z"/>
<path fill="#EDD473" opacity="1.000000" stroke="none" 
	d="
M307.109924,182.683960 
	C306.487091,182.930161 305.977509,182.916016 305.094299,182.812805 
	C305.570251,182.110184 306.419830,181.496628 307.606873,180.886780 
	C307.703949,181.401550 307.463562,181.912582 307.109924,182.683960 
z"/>
<path fill="#F9F1CD" opacity="1.000000" stroke="none" 
	d="
M541.605347,36.975239 
	C541.188293,37.627155 540.417480,38.282806 539.326538,38.981781 
	C539.754822,38.343060 540.503235,37.661015 541.605347,36.975239 
z"/>
<path fill="#EDD473" opacity="1.000000" stroke="none" 
	d="
M460.952759,90.911522 
	C460.216064,90.945816 459.479370,90.980103 458.323303,90.880791 
	C457.903961,90.747185 457.872467,90.483734 457.872467,90.483727 
	C458.612518,89.959862 459.352600,89.436005 460.420410,88.815819 
	C460.748169,88.719498 460.953918,88.944862 461.001251,89.342453 
	C461.016632,90.130539 460.984711,90.521027 460.952759,90.911522 
z"/>
<path fill="#F7F5DD" opacity="1.000000" stroke="none" 
	d="
M438.620483,100.987000 
	C438.189240,101.640015 437.409393,102.290627 436.308380,102.947784 
	C436.748779,102.297752 437.510345,101.641167 438.620483,100.987000 
z"/>
<path fill="#F7F5DD" opacity="1.000000" stroke="none" 
	d="
M368.694275,144.049438 
	C368.258881,144.711105 367.463074,145.350906 366.349060,146.016632 
	C366.798553,145.370895 367.566223,144.699234 368.694275,144.049438 
z"/>
<path fill="#F7F5DD" opacity="1.000000" stroke="none" 
	d="
M441.747894,99.051147 
	C441.805054,99.530357 441.499756,99.979568 441.057739,100.663536 
	C440.492889,100.931236 440.064758,100.964188 439.314392,100.982643 
	C439.789948,100.319153 440.587708,99.670151 441.747894,99.051147 
z"/>
<path fill="#F7F5DD" opacity="1.000000" stroke="none" 
	d="
M373.529022,134.487579 
	C373.866547,133.857269 374.575745,133.395401 375.607910,132.912872 
	C375.254120,133.480148 374.577393,134.068085 373.529022,134.487579 
z"/>
<path fill="#EDD473" opacity="1.000000" stroke="none" 
	d="
M329.805115,168.266205 
	C329.574585,168.855392 329.034210,169.393082 328.177856,169.889618 
	C328.406342,169.303909 328.950775,168.759308 329.805115,168.266205 
z"/>
<path fill="#F9F1CD" opacity="1.000000" stroke="none" 
	d="
M466.977600,83.239586 
	C467.202240,83.656342 467.088318,84.007538 466.735046,84.700928 
	C466.495697,85.043121 466.108368,85.208069 465.865173,85.159035 
	C465.621948,85.110001 465.126221,85.132011 465.126221,85.132011 
	C465.126221,85.132011 464.998535,85.000572 464.933167,84.934265 
	C465.458191,84.303322 466.048615,83.738678 466.977600,83.239586 
z"/>
<path fill="#F7F5DD" opacity="1.000000" stroke="none" 
	d="
M424.987274,109.197792 
	C424.788055,109.827148 424.230316,110.405647 423.360138,111.029022 
	C423.574738,110.431572 424.101776,109.789246 424.987274,109.197792 
z"/>
<path fill="#F7F5DD" opacity="1.000000" stroke="none" 
	d="
M445.841156,97.846405 
	C445.434479,97.898666 445.027832,97.950928 444.313782,98.000938 
	C444.550995,97.500137 445.095581,97.001579 445.791138,96.951431 
	C445.942047,97.399826 445.841156,97.846405 445.841156,97.846405 
z"/>
<path fill="#C6A854" opacity="1.000000" stroke="none" 
	d="
M510.741119,58.855137 
	C510.794006,58.417355 510.846893,57.979568 510.949158,57.214115 
	C511.352081,56.808693 511.705658,56.730938 512.437012,56.731232 
	C512.814758,56.809284 513.030457,57.039391 512.883667,57.310242 
	C512.071655,58.005775 511.406403,58.430454 510.741119,58.855137 
z"/>
<path fill="#EDD473" opacity="1.000000" stroke="none" 
	d="
M445.923340,97.926971 
	C445.841156,97.846405 445.942047,97.399826 445.969543,97.172287 
	C446.657104,96.854301 447.317108,96.763847 448.299072,96.596817 
	C448.621002,96.520241 448.811584,96.767563 448.705261,97.134247 
	C447.788818,97.723999 446.978638,97.947067 446.168488,98.170135 
	C446.168488,98.170143 446.005554,98.007545 445.923340,97.926971 
z"/>
<path fill="#C6A854" opacity="1.000000" stroke="none" 
	d="
M512.707031,56.694084 
	C513.025696,56.218918 513.451965,55.858952 514.145752,55.430084 
	C514.413147,55.361187 514.724548,55.677464 514.703186,56.091122 
	C514.131348,56.682980 513.580933,56.861179 513.030457,57.039383 
	C513.030457,57.039391 512.814758,56.809284 512.707031,56.694084 
z"/>
<path fill="#F9F1CD" opacity="1.000000" stroke="none" 
	d="
M535.695557,41.008644 
	C535.541016,41.341274 535.082520,41.692963 534.312256,42.045906 
	C534.464172,41.707344 534.927856,41.367523 535.695557,41.008644 
z"/>
<path fill="#F9F1CD" opacity="1.000000" stroke="none" 
	d="
M473.039581,81.062523 
	C472.857025,81.029396 472.674438,80.996269 472.221497,80.894974 
	C472.065125,80.540550 472.246765,80.306854 472.687256,80.008179 
	C472.878540,79.890625 473.113922,80.121872 473.154602,80.415756 
	C473.195251,80.709641 473.039581,81.062523 473.039581,81.062523 
z"/>
<path fill="#EDD473" opacity="1.000000" stroke="none" 
	d="
M316.773254,176.117981 
	C316.950928,176.446365 316.754761,176.690506 316.188049,176.856308 
	C315.998505,176.522507 316.192474,176.274429 316.773254,176.117981 
z"/>
<path fill="#F9F1CD" opacity="1.000000" stroke="none" 
	d="
M470.853882,81.133034 
	C470.887085,81.325569 470.674744,81.576569 470.218262,81.888229 
	C470.185547,81.696434 470.396912,81.443962 470.853882,81.133034 
z"/>
<path fill="#F6CC3D" opacity="1.000000" stroke="none" 
	d="
M457.705933,90.477654 
	C457.872467,90.483734 457.903961,90.747185 457.954712,90.869720 
	C458.005493,90.992264 457.998718,91.000778 457.773621,90.965248 
	C457.548492,90.929718 457.102875,90.964645 457.102875,90.964645 
	C457.183777,90.743019 457.329285,90.578659 457.705933,90.477654 
z"/>
<path fill="#EDD473" opacity="1.000000" stroke="none" 
	d="
M456.919983,91.077438 
	C457.102875,90.964645 457.548492,90.929718 457.768677,90.967789 
	C457.687347,91.235809 457.385834,91.465759 456.793121,91.622803 
	C456.501892,91.549904 456.737061,91.190224 456.919983,91.077438 
z"/>
<path fill="#EDD473" opacity="1.000000" stroke="none" 
	d="
M455.637329,91.844040 
	C455.698944,92.077560 455.514374,92.376831 455.052368,92.680397 
	C454.980316,92.426399 455.185699,92.168091 455.637329,91.844040 
z"/>
<path fill="#F9F1CD" opacity="1.000000" stroke="none" 
	d="
M537.809204,40.059372 
	C537.966003,40.359692 537.774536,40.612610 537.203735,40.735012 
	C537.110229,40.443394 537.322449,40.245888 537.809204,40.059372 
z"/>
<path fill="#F9F1CD" opacity="1.000000" stroke="none" 
	d="
M533.105835,42.279205 
	C533.140808,42.532173 532.871521,42.792645 532.324524,43.117188 
	C532.298401,42.883080 532.549988,42.584896 533.105835,42.279205 
z"/>
<path fill="#EDD473" opacity="1.000000" stroke="none" 
	d="
M327.624084,169.903015 
	C327.653687,170.145828 327.423981,170.429367 326.903503,170.682953 
	C326.863403,170.416580 327.114136,170.180161 327.624084,169.903015 
z"/>
<path fill="#EDD473" opacity="1.000000" stroke="none" 
	d="
M309.855408,179.516388 
	C309.924164,179.779053 309.753693,179.919724 309.375519,180.041504 
	C309.193329,179.746094 309.342804,179.536667 309.855408,179.516388 
z"/>
<path fill="#FCFCFC" opacity="1.000000" stroke="none" 
	d="
M93.000633,126.185410 
	C102.305641,126.514359 111.200737,126.165421 119.897354,127.316315 
	C138.021896,129.714905 142.090073,146.348633 136.537170,158.116226 
	C132.652771,166.347931 124.710915,169.420502 116.390320,169.855545 
	C102.938210,170.558868 89.429253,170.196320 75.944168,170.226456 
	C73.600883,170.231705 71.883148,169.669693 71.918228,166.533066 
	C72.065247,153.388077 71.980263,140.240494 71.980263,126.186783 
	C78.997681,126.186783 85.749260,126.186783 93.000633,126.185410 
z"/>
<path fill="#B68A27" opacity="1.000000" stroke="none" 
	d="
M235.086365,218.777802 
	C237.572464,222.077774 241.472565,224.725616 239.264969,229.908890 
	C238.798782,231.003479 241.181259,233.096527 241.723831,234.889145 
	C242.424774,237.205017 242.595734,239.681290 242.602066,242.532471 
	C240.518204,243.254349 238.827179,243.532257 237.136169,243.810150 
	C222.905777,243.896332 208.675415,243.997452 194.444885,244.034485 
	C193.513672,244.036911 192.581192,243.548477 191.258057,243.096710 
	C195.610138,239.972961 200.219757,236.791534 205.124985,234.161392 
	C214.922668,228.907913 224.882446,223.956726 235.086365,218.777802 
z"/>
<path fill="#F3C73C" opacity="1.000000" stroke="none" 
	d="
M391.493561,157.078674 
	C388.396667,155.300705 386.122467,156.284729 383.491516,157.880112 
	C375.476166,162.740646 367.962067,168.052399 363.026031,176.665955 
	C360.549225,178.742233 358.105255,180.470078 355.348083,181.851318 
	C356.688354,178.668045 358.341827,175.831390 360.347198,172.940491 
	C361.254211,172.322098 362.130493,171.847549 362.316528,171.180496 
	C365.447357,159.955048 374.682739,155.824783 384.287415,152.063721 
	C385.592804,151.552582 386.762115,150.694092 387.994446,149.996429 
	C388.161804,149.996658 388.329163,149.996902 388.753235,150.373871 
	C390.335297,151.835281 391.660675,152.919937 393.232971,154.010895 
	C393.479858,154.017166 393.973145,154.042023 393.973297,154.240616 
	C393.973450,154.439209 393.978912,154.836365 393.956909,155.101883 
	C393.930420,155.544952 393.925903,155.722519 393.921387,155.900101 
	C393.217010,156.288940 392.512634,156.677780 391.493561,157.078674 
z"/>
<path fill="#E9BE3A" opacity="1.000000" stroke="none" 
	d="
M472.977448,81.391556 
	C473.039581,81.062523 473.195251,80.709641 473.270630,80.533035 
	C474.636780,79.878319 475.927521,79.400208 477.557983,78.848137 
	C478.431030,83.825623 482.444672,82.602982 485.960571,83.054123 
	C484.220367,84.970100 482.647614,86.701714 481.055420,88.792526 
	C475.591492,93.429276 470.147064,97.706818 464.307739,101.605537 
	C464.006226,99.557655 463.801208,97.802551 464.252655,96.236702 
	C465.335205,92.481796 466.726166,88.815811 467.992676,85.113937 
	C468.644928,84.662483 469.297180,84.211014 470.056030,83.465607 
	C471.080200,82.687965 471.997742,82.204277 472.977448,81.391556 
z"/>
<path fill="#EEC53C" opacity="1.000000" stroke="none" 
	d="
M467.716919,85.068283 
	C466.726166,88.815811 465.335205,92.481796 464.252655,96.236702 
	C463.801208,97.802551 464.006226,99.557655 463.952087,101.596146 
	C459.932434,105.634018 455.873444,109.302475 451.124207,112.999054 
	C449.951050,113.010544 449.468109,112.993912 448.990356,112.569054 
	C450.307068,107.651367 446.637085,101.545815 453.398468,98.672356 
	C454.003357,98.415298 453.796844,96.249039 453.967163,94.969467 
	C453.967163,94.969467 453.982361,94.978104 453.969360,94.969162 
	C456.576324,94.489792 460.424316,96.680931 460.963104,91.317009 
	C460.984711,90.521027 461.016632,90.130539 461.106232,89.453186 
	C462.317688,88.605255 463.471466,88.044182 464.679108,87.148232 
	C464.732941,86.813362 464.778564,86.810463 465.074890,86.736481 
	C465.616943,86.177681 465.862671,85.692879 466.108368,85.208069 
	C466.108368,85.208069 466.495697,85.043121 466.694763,84.976135 
	C467.076294,84.946976 467.258728,84.984802 467.716919,85.068283 
z"/>
<path fill="#FADA4E" opacity="1.000000" stroke="none" 
	d="
M417.047516,136.065918 
	C415.486450,135.498108 413.951904,134.835754 412.357117,134.388199 
	C410.649231,133.908920 408.884613,133.631912 407.144745,133.266617 
	C407.136658,132.762833 407.128571,132.259064 407.120483,131.755280 
	C410.312561,129.377548 413.504669,126.999825 417.188110,124.310074 
	C418.452545,123.665184 419.225677,123.332314 420.364166,122.961121 
	C422.153534,122.615372 423.577484,122.307938 425.001099,122.397461 
	C425.355804,124.877136 425.710846,126.959839 426.051605,129.423370 
	C426.039856,130.568039 426.042419,131.331909 426.044983,132.095764 
	C424.925110,133.058380 423.805267,134.020996 422.234619,134.865662 
	C421.524078,135.168762 421.264313,135.589798 421.004547,136.010834 
	C421.004547,136.010834 421.000000,135.999893 420.607971,135.990829 
	C419.159821,136.009827 418.103668,136.037872 417.047516,136.065918 
z"/>
<path fill="#F7C647" opacity="1.000000" stroke="none" 
	d="
M392.986084,154.004608 
	C391.660675,152.919937 390.335297,151.835281 389.004272,150.374268 
	C392.938049,147.853348 396.824677,145.603119 400.835144,143.600784 
	C403.574677,142.232971 406.486938,141.211044 409.643616,140.406250 
	C409.657379,142.202087 409.349518,143.626175 409.041656,145.050247 
	C409.041656,145.050247 409.001221,145.012573 408.636841,145.001495 
	C405.564423,147.081329 402.856354,149.172272 400.148285,151.263199 
	C398.644775,152.456955 397.141296,153.650711 395.066956,154.886444 
	C394.323730,154.897751 394.151306,154.867050 393.978912,154.836365 
	C393.978912,154.836365 393.973450,154.439209 393.898987,154.062073 
	C393.545013,153.791489 393.265564,153.898041 392.986084,154.004608 
z"/>
<path fill="#DAA92C" opacity="1.000000" stroke="none" 
	d="
M512.883667,57.310238 
	C513.580933,56.861179 514.131348,56.682980 514.846680,56.260399 
	C515.992126,55.207443 516.972595,54.398872 517.968689,53.237453 
	C518.427307,52.560108 518.870239,52.235603 519.583862,51.836754 
	C524.110352,54.477158 519.001892,56.226711 519.224854,58.877266 
	C519.291504,59.235622 519.248779,59.214993 518.884216,59.161446 
	C517.699280,59.757599 516.878845,60.407295 516.058472,61.056984 
	C511.950745,64.360550 507.843018,67.664124 503.375305,70.937080 
	C503.270630,69.565933 503.580750,68.232857 503.764496,66.882576 
	C503.918274,65.752808 503.924255,64.602928 503.934021,63.095982 
	C505.938141,61.461021 508.003998,60.192032 510.405518,58.889091 
	C511.406403,58.430454 512.071655,58.005775 512.883667,57.310238 
z"/>
<path fill="#EBD072" opacity="1.000000" stroke="none" 
	d="
M426.388550,132.041809 
	C426.042419,131.331909 426.039856,130.568039 426.395355,129.378143 
	C431.171448,125.653183 435.589478,122.354263 440.354248,119.012497 
	C443.462402,116.972191 446.223785,114.974724 448.985168,112.977272 
	C449.468109,112.993912 449.951050,113.010544 450.793457,113.087143 
	C445.788025,117.418083 440.453918,121.728493 435.045380,125.943405 
	C432.344452,128.048248 429.507507,129.978592 426.388550,132.041809 
z"/>
<path fill="#EBD072" opacity="1.000000" stroke="none" 
	d="
M409.385681,145.020981 
	C409.349518,143.626175 409.657379,142.202087 410.027283,140.417709 
	C412.137878,139.702438 414.186493,139.347473 416.635132,139.011780 
	C414.600037,141.017944 412.164856,143.004837 409.385681,145.020981 
z"/>
<path fill="#EBD072" opacity="1.000000" stroke="none" 
	d="
M400.498108,151.203094 
	C402.856354,149.172272 405.564423,147.081329 408.656555,145.016144 
	C406.309692,147.075577 403.578827,149.109283 400.498108,151.203094 
z"/>
<path fill="#EBD072" opacity="1.000000" stroke="none" 
	d="
M417.037323,136.436829 
	C418.103668,136.037872 419.159821,136.009827 420.613312,135.993271 
	C419.902405,136.996078 418.794159,137.987366 417.358276,139.010132 
	C417.029510,138.296997 417.028320,137.552383 417.037323,136.436829 
z"/>
<path fill="#C6A854" opacity="1.000000" stroke="none" 
	d="
M516.393921,61.015854 
	C516.878845,60.407295 517.699280,59.757599 518.861084,59.164261 
	C518.378113,59.805313 517.553711,60.390011 516.393921,61.015854 
z"/>
<path fill="#EBD072" opacity="1.000000" stroke="none" 
	d="
M421.235077,135.939072 
	C421.264313,135.589798 421.524078,135.168762 421.918304,134.935364 
	C421.949707,135.444183 421.753967,135.692276 421.235077,135.939072 
z"/>
<path fill="#EBD072" opacity="1.000000" stroke="none" 
	d="
M393.956909,155.101883 
	C394.151306,154.867050 394.323730,154.897751 394.756470,154.964844 
	C394.820404,155.269440 394.624054,155.537643 394.174530,155.852966 
	C393.925903,155.722519 393.930420,155.544952 393.956909,155.101883 
z"/>
<path fill="#F2F5F6" opacity="1.000000" stroke="none" 
	d="
M483.490814,238.614777 
	C481.916779,233.682037 482.218048,232.878769 487.195007,228.803604 
	C490.340240,231.796143 493.543640,234.844009 497.292908,238.411240 
	C492.024689,241.625702 487.940338,242.592087 483.490814,238.614777 
z"/>
<path fill="#E5EAED" opacity="1.000000" stroke="none" 
	d="
M494.148529,215.729095 
	C494.849609,219.469345 492.933380,221.672150 489.962250,221.895706 
	C488.690735,221.991364 486.829407,219.585449 485.994110,217.933029 
	C485.564301,217.082733 486.807892,214.267563 487.278534,214.271637 
	C489.506012,214.290924 491.727783,214.976593 494.148529,215.729095 
z"/>
<path fill="#FAEA5A" opacity="1.000000" stroke="none" 
	d="
M301.999573,204.007355 
	C305.534943,201.519470 309.070343,199.031586 312.808319,196.278564 
	C318.372162,191.943832 323.733429,187.874252 329.498291,183.442841 
	C331.593719,182.716125 333.285583,182.351288 335.349731,181.997772 
	C336.792999,182.636871 338.317200,183.004700 338.853180,183.939301 
	C340.751312,187.248901 343.529938,188.389969 347.127686,188.117462 
	C334.034271,196.123581 320.940857,204.129700 307.316772,211.832794 
	C305.190582,209.022293 303.595062,206.514832 301.999573,204.007355 
z"/>
<path fill="#F8DC55" opacity="1.000000" stroke="none" 
	d="
M301.679382,204.132751 
	C303.595062,206.514832 305.190582,209.022293 306.943237,211.850403 
	C299.611389,217.005569 292.122375,221.840073 284.314575,226.395996 
	C285.964752,223.791962 287.933716,221.466507 290.411682,218.539963 
	C289.746216,217.654388 288.343384,215.787476 287.114319,213.636810 
	C288.854645,212.224823 290.421204,211.096603 291.987793,209.968384 
	C295.111572,208.064987 298.235382,206.161575 301.679382,204.132751 
z"/>
<path fill="#FBE045" opacity="1.000000" stroke="none" 
	d="
M347.405457,188.070770 
	C343.529938,188.389969 340.751312,187.248901 338.853180,183.939301 
	C338.317200,183.004700 336.792999,182.636871 335.503357,181.694427 
	C340.188477,177.918396 345.092255,174.457062 350.330627,170.998627 
	C351.111359,171.003159 351.557526,171.004807 351.995941,171.400421 
	C350.938507,176.840393 349.888824,181.886383 348.839142,186.932373 
	C348.453857,187.296280 348.068573,187.660187 347.405457,188.070770 
z"/>
<path fill="#DAA837" opacity="1.000000" stroke="none" 
	d="
M237.580017,243.902893 
	C238.827179,243.532257 240.518204,243.254349 242.603027,242.944016 
	C246.455643,240.365997 249.914429,237.820419 254.005753,235.096222 
	C255.092300,234.283920 255.546310,233.650238 256.000336,233.016541 
	C256.000336,233.016556 256.001007,233.003906 256.008942,233.002869 
	C258.146179,231.768814 260.275482,230.535782 262.709473,229.533875 
	C262.985931,234.431900 266.114380,234.467545 269.472168,234.166733 
	C260.062164,240.875458 250.095642,245.803482 237.580017,243.902893 
z"/>
<path fill="#EDBC3D" opacity="1.000000" stroke="none" 
	d="
M269.807739,234.168121 
	C266.114380,234.467545 262.985931,234.431900 263.018463,229.393509 
	C267.129639,226.431000 271.236481,223.839951 275.670349,221.470947 
	C277.696167,223.807343 279.394958,225.921677 281.093719,228.036011 
	C277.443573,230.080505 273.793427,232.125000 269.807739,234.168121 
z"/>
<path fill="#F6CC3D" opacity="1.000000" stroke="none" 
	d="
M281.410095,228.024445 
	C279.394958,225.921677 277.696167,223.807343 275.984680,221.327057 
	C277.522003,219.811447 279.071991,218.661774 281.148438,217.214523 
	C283.430054,215.918137 285.185303,214.919342 286.940552,213.920563 
	C288.343384,215.787476 289.746216,217.654388 290.411682,218.539963 
	C287.933716,221.466507 285.964752,223.791962 283.988770,226.487549 
	C283.230011,227.242783 282.478241,227.627838 281.410095,228.024445 
z"/>
<path fill="#F7D546" opacity="1.000000" stroke="none" 
	d="
M349.169922,186.839172 
	C349.888824,181.886383 350.938507,176.840393 352.377869,171.353851 
	C355.556793,170.287491 358.796265,168.098343 359.995270,172.994720 
	C358.341827,175.831390 356.688354,178.668045 354.988739,181.912094 
	C353.128632,183.794983 351.314697,185.270477 349.169922,186.839172 
z"/>
<path fill="#CFA22D" opacity="1.000000" stroke="none" 
	d="
M255.679840,233.051727 
	C255.546310,233.650238 255.092300,234.283920 254.318207,234.955200 
	C254.451843,234.357513 254.905579,233.722229 255.679840,233.051727 
z"/>
<path fill="#DAA92C" opacity="1.000000" stroke="none" 
	d="
M287.114319,213.636795 
	C285.185303,214.919342 283.430054,215.918137 281.330017,216.947479 
	C273.772247,209.799149 275.333832,201.356415 284.613770,196.918533 
	C285.706543,196.395950 286.507416,195.262924 287.724060,194.216187 
	C291.234833,196.282166 293.417877,198.505737 290.463013,202.871368 
	C289.630371,204.101547 291.357880,207.064545 291.949493,209.600586 
	C290.421204,211.096603 288.854645,212.224823 287.114319,213.636795 
z"/>
<path fill="#F9C033" opacity="1.000000" stroke="none" 
	d="
M349.996002,170.995728 
	C345.092255,174.457062 340.188477,177.918396 335.131073,181.683075 
	C333.285583,182.351288 331.593719,182.716125 329.527710,183.083008 
	C328.105255,181.286285 326.314423,179.513687 326.249817,177.680252 
	C326.200470,176.279190 328.203156,174.663910 329.526794,173.386032 
	C332.245819,170.761047 335.121521,168.298370 337.982544,165.424133 
	C340.765106,163.727081 343.497803,162.374786 346.859375,161.199463 
	C349.326691,163.585068 351.165192,165.793671 352.801514,168.261475 
	C351.731598,169.345703 350.863800,170.170715 349.996002,170.995728 
z"/>
<path fill="#F2F5F6" opacity="1.000000" stroke="none" 
	d="
M564.475464,238.694061 
	C560.386108,233.571838 560.712158,228.726288 564.983215,226.003799 
	C569.019958,223.430634 575.265381,225.060440 577.102356,229.932526 
	C577.972717,232.240891 577.633179,236.184555 576.141663,237.955139 
	C573.175354,241.476379 568.838745,241.296875 564.475464,238.694061 
z"/>
<path fill="#FAD13B" opacity="1.000000" stroke="none" 
	d="
M350.330627,170.998627 
	C350.863800,170.170715 351.731598,169.345703 353.152405,168.224640 
	C356.237701,166.391663 358.965790,165.098770 361.256348,163.260620 
	C364.692169,160.503433 368.093842,157.603043 370.987335,154.304977 
	C373.017944,151.990433 372.419769,149.620468 368.882843,148.932220 
	C371.734039,146.405548 374.318970,143.461227 377.491516,141.438492 
	C384.261261,137.122299 391.335571,133.283829 398.961182,129.111176 
	C400.418915,128.303543 401.200592,127.634369 401.982269,126.965179 
	C402.755676,126.635902 403.529114,126.306633 404.635254,125.958710 
	C406.916962,129.060333 405.388702,131.511429 403.036194,133.263046 
	C397.746338,137.201691 392.213257,140.812256 386.829895,144.627975 
	C385.820618,145.343369 385.047485,146.391983 384.165405,147.286835 
	C385.287323,148.010239 386.409210,148.733627 387.762787,149.726715 
	C386.762115,150.694092 385.592804,151.552582 384.287415,152.063721 
	C374.682739,155.824783 365.447357,159.955048 362.316528,171.180496 
	C362.130493,171.847549 361.254211,172.322098 360.347198,172.940475 
	C358.796265,168.098343 355.556793,170.287491 352.385620,170.959869 
	C351.557526,171.004807 351.111359,171.003159 350.330627,170.998627 
z"/>
<path fill="#FAD13B" opacity="1.000000" stroke="none" 
	d="
M419.998779,122.999435 
	C419.225677,123.332314 418.452545,123.665184 417.342163,124.001984 
	C416.339600,122.902420 415.674316,121.798920 415.005432,120.352020 
	C415.646820,119.223053 416.291840,118.437492 416.978455,117.335999 
	C422.764526,113.692947 428.509003,110.365822 434.878845,107.193810 
	C436.668640,109.233742 437.833099,111.118546 438.622803,113.002884 
	C437.498383,113.003021 436.748749,113.003632 435.830261,112.686356 
	C433.774078,110.629295 432.332550,110.097923 430.762756,113.014885 
	C429.731201,114.931679 427.782227,116.396751 426.109039,117.915321 
	C424.148834,119.694374 422.041992,121.311859 419.998779,122.999435 
z"/>
<path fill="#FBC839" opacity="1.000000" stroke="none" 
	d="
M368.502502,148.933624 
	C372.419769,149.620468 373.017944,151.990433 370.987335,154.304977 
	C368.093842,157.603043 364.692169,160.503433 361.256348,163.260620 
	C358.965790,165.098770 356.237701,166.391663 353.354553,167.965439 
	C351.165192,165.793671 349.326691,163.585068 347.212524,161.153961 
	C353.998596,156.932648 361.060364,152.933853 368.502502,148.933624 
z"/>
<path fill="#FAD843" opacity="1.000000" stroke="none" 
	d="
M401.624420,126.976105 
	C401.200592,127.634369 400.418915,128.303543 399.270966,128.957642 
	C398.946808,128.539261 398.988922,128.135971 399.082214,127.434486 
	C399.844452,127.086525 400.555511,127.036766 401.624420,126.976105 
z"/>
<path fill="#F6CC3D" opacity="1.000000" stroke="none" 
	d="
M438.997559,113.003357 
	C437.833099,111.118546 436.668640,109.233742 435.229370,107.155289 
	C436.961121,105.250984 438.967682,103.540329 441.084045,101.517097 
	C442.803131,100.434769 444.412445,99.665024 446.095093,98.532707 
	C446.978638,97.947067 447.788818,97.723999 448.803772,97.255371 
	C450.455872,96.418922 451.903168,95.828026 453.658813,95.103302 
	C453.796844,96.249039 454.003357,98.415298 453.398468,98.672356 
	C446.637085,101.545815 450.307068,107.651367 448.990356,112.569046 
	C446.223785,114.974724 443.462402,116.972191 440.346588,118.621811 
	C439.660614,116.517105 439.329071,114.760231 438.997559,113.003357 
z"/>
<path fill="#EDD473" opacity="1.000000" stroke="none" 
	d="
M465.865173,85.159035 
	C465.862671,85.692879 465.616943,86.177681 465.094238,86.725006 
	C464.877380,86.418083 464.937531,86.048653 465.061951,85.405609 
	C465.126221,85.132011 465.621948,85.110001 465.865173,85.159035 
z"/>
<path fill="#EBBA46" opacity="1.000000" stroke="none" 
	d="
M393.232971,154.010880 
	C393.265564,153.898041 393.545013,153.791489 393.898804,153.863480 
	C393.973145,154.042023 393.479858,154.017166 393.232971,154.010880 
z"/>
<path fill="#F7D546" opacity="1.000000" stroke="none" 
	d="
M438.622772,113.002884 
	C439.329071,114.760231 439.660614,116.517105 439.999817,118.664658 
	C435.589478,122.354263 431.171448,125.653183 426.409668,128.997314 
	C425.710846,126.959839 425.355804,124.877136 425.324524,122.254440 
	C429.663940,119.482933 434.242035,117.919769 435.999115,113.004227 
	C436.748749,113.003632 437.498383,113.003021 438.622772,113.002884 
z"/>
<path fill="#FAD843" opacity="1.000000" stroke="none" 
	d="
M435.830261,112.686348 
	C434.242035,117.919769 429.663940,119.482933 425.324860,121.857468 
	C423.577484,122.307938 422.153534,122.615372 420.364166,122.961121 
	C422.041992,121.311859 424.148834,119.694374 426.109039,117.915321 
	C427.782227,116.396751 429.731201,114.931679 430.762756,113.014885 
	C432.332550,110.097923 433.774078,110.629295 435.830261,112.686348 
z"/>
</svg>